<svg xmlns="http://www.w3.org/2000/svg" viewBox="0 0 128 128">
  <rect width="128" height="128" rx="24" fill="#F6851B"/>
  <path d="M104 24L68 51.2l6.4-15.2z" fill="#E2761B"/>
  <path d="M24 24l35.6 27.4L54 36.2z" fill="#E4761B"/>
  <path d="M90.4 84.8l-9.6 14.8 20.4 5.6 5.6-20z" fill="#E4761B"/>
  <path d="M21.2 85.2l5.6 20 20.4-5.6-9.6-14.8z" fill="#E4761B"/>
  <path d="M46 57.6l-5.2 7.8 18.4.8-.6-19.8z" fill="#E4761B"/>
  <path d="M82 57.6l-12.8-11.6-.6 19.8 18.4-.8z" fill="#E4761B"/>
  <path d="M47.2 99.6l11-5.4-9.4-7.4z" fill="#E4761B"/>
  <path d="M69.8 94.2l11 5.4-1.6-12.8z" fill="#E4761B"/>
  <path d="M80.8 99.6l-11-5.4-1 7.4.2 2.6z" fill="#D7C1B3"/>
  <path d="M47.2 99.6l11.8 4.6.2-2.6-1-7.4z" fill="#D7C1B3"/>
  <path d="M59.2 80.2l-9-2.6 6.4-3z" fill="#233447"/>
  <path d="M68.8 80.2l2.6-5.6 6.4 3z" fill="#233447"/>
  <path d="M47.2 99.6l1.6-14.8-10.6.4z" fill="#CC6228"/>
  <path d="M79.2 84.8l1.6 14.8 9-14.4z" fill="#CC6228"/>
  <path d="M89 65.4l-18.4.8 1.8 9.8 2.6-5.6 6.4 3z" fill="#CC6228"/>
  <path d="M50.2 73.4l6.4-3 2.6 5.6 1.8-9.8-18.4-.8z" fill="#CC6228"/>
  <path d="M40.8 65.4l7.8 15.4-.4-7.4z" fill="#E27525"/>
  <path d="M79.8 73.4l-.4 7.4 7.8-15.4z" fill="#E27525"/>
  <path d="M59.2 66.2l-1.8 9.8 2.2 11.6.6-15.2z" fill="#E27525"/>
  <path d="M68.8 66.2l-1 6.2.6 15.2 2.2-11.6z" fill="#E27525"/>
</svg>
